<svg width="30" height="31" viewBox="0 0 30 31" fill="none" xmlns="http://www.w3.org/2000/svg">
<path d="M23.8368 8.01019H10.8446C9.00229 8.01019 7.50879 9.5037 7.50879 11.346V24.3382C7.50879 26.1805 9.00229 27.674 10.8446 27.674H23.8368C25.6791 27.674 27.1726 26.1805 27.1726 24.3382V11.346C27.1726 9.5037 25.6791 8.01019 23.8368 8.01019Z" stroke="#718096" stroke-width="2" stroke-linejoin="round"/>
<path d="M22.4617 8.00984L22.491 6.60528C22.4885 5.73684 22.1424 4.90468 21.5284 4.2906C20.9143 3.67652 20.0821 3.33044 19.2137 3.32797H6.57264C5.58018 3.33091 4.6292 3.72646 3.92742 4.42824C3.22564 5.13002 2.83008 6.081 2.82715 7.07347V19.7145C2.82962 20.583 3.1757 21.4151 3.78978 22.0292C4.40386 22.6433 5.23602 22.9894 6.10446 22.9918H7.50902" stroke="#718096" stroke-width="2" stroke-linecap="round" stroke-linejoin="round"/>
</svg>
