<svg width="28" height="27" viewBox="0 0 28 27" fill="none" xmlns="http://www.w3.org/2000/svg">
<path d="M22.8368 6.01019H9.84462C8.00229 6.01019 6.50879 7.5037 6.50879 9.34602V22.3382C6.50879 24.1805 8.00229 25.674 9.84462 25.674H22.8368C24.6791 25.674 26.1726 24.1805 26.1726 22.3382V9.34602C26.1726 7.5037 24.6791 6.01019 22.8368 6.01019Z"/>
<path d="M21.4617 6.00984L21.491 4.60528C21.4885 3.73684 21.1424 2.90468 20.5284 2.2906C19.9143 1.67652 19.0821 1.33044 18.2137 1.32797H5.57264C4.58018 1.33091 3.6292 1.72646 2.92742 2.42824C2.22564 3.13002 1.83008 4.081 1.82715 5.07347V17.7145C1.82962 18.583 2.1757 19.4151 2.78978 20.0292C3.40386 20.6433 4.23602 20.9894 5.10446 20.9918H6.50902"/>
</svg>
